<svg width="495" height="362" viewBox="0 0 495 362" fill="none" xmlns="http://www.w3.org/2000/svg">
<g clip-path="url(#clip0_1522_9072)">
<mask id="mask0_1522_9072" style="mask-type:luminance" maskUnits="userSpaceOnUse" x="0" y="0" width="495" height="362">
<path d="M495 0H0V361.339H495V0Z" fill="white"/>
</mask>
<g mask="url(#mask0_1522_9072)">
<g opacity="0.7">
<path d="M20.9685 171.737H15.2283V175.545H20.9685V171.737Z" fill="#1C1822" stroke="white" stroke-width="0.0501742"/>
<path d="M43.1336 171.737H37.3934V175.545H43.1336V171.737Z" fill="#1C1822" stroke="white" stroke-width="0.0501742"/>
<path d="M27.2202 159.603V171.509H9.09058L9.26033 158.665H15.6829H18.4393H18.4615L18.4669 158.644L19.1172 156.07L26.2824 152.644L27.5773 153.263L27.5769 153.264L27.5838 153.265L29.6078 153.687L29.7483 158.352H28.7262H28.7159L28.7081 158.359L27.2305 159.58L27.2202 159.589V159.603Z" fill="#1C1822" stroke="white" stroke-width="0.0501742"/>
<path d="M31.5107 159.603V171.509H49.6401L49.4704 158.665H43.0478H40.2914H40.2693L40.2639 158.644L39.6136 156.07L32.4484 152.644L31.1535 153.263L31.1539 153.264L31.1471 153.265L29.123 153.687L28.9824 158.352H30.0046H30.0148L30.0227 158.359L31.5004 159.58L31.5107 159.589V159.603Z" fill="#1C1822" stroke="white" stroke-width="0.0501742"/>
<path d="M29.8428 158.153C29.8428 157.379 30.4587 156.761 31.2068 156.761C31.9548 156.761 32.5708 157.379 32.5708 158.153C32.5708 158.928 31.9548 159.546 31.2068 159.546C30.4587 159.546 29.8428 158.928 29.8428 158.153Z" fill="#1C1822" stroke="white" stroke-width="0.602091"/>
<path d="M25.8649 158.153C25.8649 157.384 26.4882 156.761 27.2572 156.761C28.0262 156.761 28.6497 157.384 28.6497 158.153C28.6497 158.922 28.0262 159.546 27.2572 159.546C26.4882 159.546 25.8649 158.922 25.8649 158.153Z" fill="#1C1822" stroke="white" stroke-width="0.602091"/>
<path d="M15.4685 158.63H9.40277C9.21444 158.63 9.06177 158.783 9.06177 158.971V171.341C9.06177 171.529 9.21444 171.682 9.40277 171.682H26.9358C27.1242 171.682 27.2769 171.529 27.2769 171.341V159.769M15.3457 171.682V175.573M15.3457 175.573H20.8902M15.3457 175.573H12.3063M20.8902 175.573V171.682M20.8902 175.573H23.9254" stroke="white" stroke-width="0.602091" stroke-linecap="round"/>
<path opacity="0.25" d="M16.0484 159.882H10.6808C10.4925 159.882 10.3398 160.035 10.3398 160.223V170.074C10.3398 170.262 10.4925 170.415 10.6808 170.415H25.6791C25.8674 170.415 26.0201 170.262 26.0201 170.074V161.345" stroke="white" stroke-width="0.602091" stroke-linecap="round"/>
<path d="M42.9932 158.63H49.0588C49.2472 158.63 49.3999 158.783 49.3999 158.971V171.341C49.3999 171.529 49.2472 171.682 49.0588 171.682H31.5258C31.3375 171.682 31.1848 171.529 31.1848 171.341V159.769M43.116 171.682V175.573M43.116 175.573H37.5713M43.116 175.573H46.1552M37.5713 175.573V171.682M37.5713 175.573H34.5363" stroke="white" stroke-width="0.602091" stroke-linecap="round"/>
<path opacity="0.25" d="M42.4135 159.882H47.7811C47.9694 159.882 48.1221 160.035 48.1221 160.223V170.074C48.1221 170.262 47.9694 170.415 47.7811 170.415H32.7828C32.5945 170.415 32.4418 170.262 32.4418 170.074V161.382" stroke="white" stroke-width="0.602091" stroke-linecap="round"/>
<path opacity="0.25" d="M29.2177 160.739V171.765" stroke="white" stroke-width="0.602091" stroke-linecap="round"/>
<path d="M19.6534 166.605C18.9928 166.224 18.1481 166.45 17.7668 167.111C17.3854 167.772 17.6117 168.616 18.2722 168.998C18.9328 169.38 19.7775 169.153 20.1589 168.493C20.5403 167.831 20.314 166.987 19.6534 166.605Z" fill="#1C1822" stroke="white" stroke-width="0.602091" stroke-linecap="round" stroke-linejoin="round"/>
<path d="M40.0988 166.605C39.4382 166.224 38.5935 166.45 38.2123 167.111C37.8309 167.772 38.0572 168.616 38.7177 168.998C39.3783 169.38 40.2229 169.153 40.6043 168.493C40.9857 167.831 40.7594 166.987 40.0988 166.605Z" fill="#1C1822" stroke="white" stroke-width="0.602091" stroke-linecap="round" stroke-linejoin="round"/>
<path d="M18.0504 166.679L17.0704 165.367C17.0109 165.287 16.989 165.185 17.0108 165.089L19.0367 156.012C19.0605 155.906 19.1337 155.817 19.2338 155.774L23.4994 153.923M40.3576 166.65L41.3538 165.369C41.4162 165.288 41.4396 165.184 41.4174 165.084L39.3923 156.012C39.3685 155.906 39.2952 155.817 39.1952 155.774L34.9296 153.923" stroke="white" stroke-width="0.602091" stroke-linecap="round" stroke-linejoin="round"/>
<path d="M23.9891 148.321C23.9891 145.416 26.3318 143.064 29.2179 143.064C32.104 143.064 34.4465 145.416 34.4465 148.321C34.4465 151.226 32.104 153.578 29.2179 153.578C26.3318 153.578 23.9891 151.226 23.9891 148.321Z" fill="#1C1822" stroke="white" stroke-width="0.602091"/>
</g>
<g opacity="0.4">
<path d="M409.951 309.699L406.564 306.312M410.704 307.346L409.669 306.312H405.2L403.234 308.037H399.61" stroke="white" stroke-width="1.25952"/>
<path d="M375.996 306.338L379.383 309.725M375.243 308.691L376.278 309.725H380.747L382.713 308H386.337" stroke="white" stroke-width="1.25952"/>
<path d="M392.014 323.812V320.153M389.752 323.812L389.819 322.348L392.978 319.188V314.75" stroke="white" stroke-width="1.25952"/>
<path d="M410.014 309.291C409.56 309.412 409.291 309.879 409.413 310.332C409.534 310.786 410 311.055 410.453 310.934C410.908 310.812 411.176 310.346 411.055 309.893C410.934 309.438 410.467 309.17 410.014 309.291Z" fill="white" stroke="white" stroke-width="1.25952"/>
<path d="M375.933 306.746C376.387 306.625 376.655 306.158 376.534 305.705C376.413 305.251 375.946 304.982 375.493 305.103C375.039 305.225 374.77 305.691 374.892 306.144C375.013 306.599 375.48 306.867 375.933 306.746Z" fill="white" stroke="white" stroke-width="1.25952"/>
<path d="M391.682 324.18C392.089 323.944 392.609 324.083 392.843 324.49C393.078 324.897 392.938 325.417 392.532 325.652C392.126 325.887 391.606 325.747 391.371 325.341C391.136 324.934 391.275 324.414 391.682 324.18Z" fill="#221824" stroke="white" stroke-width="1.25952"/>
<path d="M393.362 291.376C392.955 291.142 392.435 291.281 392.201 291.688C391.966 292.094 392.106 292.614 392.512 292.849C392.919 293.083 393.439 292.944 393.673 292.537C393.908 292.13 393.768 291.61 393.362 291.376Z" fill="#271825" stroke="white" stroke-width="1.25952"/>
<path d="M392.93 293.517V301.296" stroke="white" stroke-width="1.25952"/>
<path d="M408.796 297.833L399.774 306.856C399.123 307.506 399.123 308.559 399.774 309.21L408.759 318.196C408.852 318.288 408.852 318.44 408.759 318.533L403.428 323.864C403.337 323.955 403.185 323.955 403.092 323.864L394.106 314.878C393.456 314.228 392.402 314.226 391.752 314.878L382.765 323.863L382.764 323.864C382.672 323.955 382.523 323.957 382.429 323.864L377.098 318.533C377.005 318.44 377.005 318.288 377.098 318.196L386.084 309.21C386.734 308.559 386.734 307.506 386.084 306.856L377.061 297.833C376.968 297.74 376.968 297.588 377.061 297.495L382.391 292.164C382.484 292.072 382.636 292.072 382.728 292.164L391.752 301.188C392.402 301.839 393.456 301.839 394.106 301.188L403.129 292.164C403.223 292.072 403.373 292.073 403.465 292.164L403.466 292.166L408.796 297.495C408.796 297.495 408.796 297.495 408.798 297.495C408.889 297.588 408.889 297.74 408.796 297.833Z" fill="#1C1822"/>
<path d="M408.796 297.833L409.302 298.337M408.796 297.833L399.774 306.856C399.123 307.506 399.123 308.559 399.774 309.21L408.759 318.196C408.852 318.288 408.852 318.44 408.759 318.533L403.428 323.864C403.337 323.955 403.185 323.955 403.092 323.864L394.106 314.878C393.456 314.228 392.402 314.226 391.752 314.878L382.765 323.863L382.764 323.864C382.672 323.955 382.523 323.957 382.429 323.864M408.796 297.833C408.889 297.74 408.889 297.588 408.798 297.495C408.796 297.495 408.796 297.495 408.796 297.495L403.466 292.166L403.465 292.164C403.373 292.073 403.223 292.072 403.129 292.164L394.106 301.188C393.456 301.839 392.402 301.839 391.752 301.188L382.728 292.164C382.636 292.072 382.484 292.072 382.391 292.164L377.061 297.495C376.968 297.588 376.968 297.74 377.061 297.833L386.084 306.856C386.734 307.506 386.734 308.559 386.084 309.21L377.098 318.196C377.005 318.288 377.005 318.44 377.098 318.533L382.429 323.864M382.429 323.864L381.925 324.368" stroke="white" stroke-width="1.26"/>
<mask id="mask1_1522_9072" style="mask-type:luminance" maskUnits="userSpaceOnUse" x="376" y="291" width="34" height="34">
<g opacity="0.4">
<g opacity="0.4">
<path fill-rule="evenodd" clip-rule="evenodd" d="M402.588 324.368C402.959 324.739 403.562 324.739 403.934 324.368L409.264 319.037C409.636 318.666 409.636 318.063 409.264 317.691L400.278 308.706C399.907 308.334 399.907 307.731 400.278 307.36L409.302 298.337C409.673 297.965 409.673 297.362 409.302 296.991L403.97 291.66C403.599 291.289 402.997 291.289 402.625 291.66L393.602 300.684C393.23 301.055 392.628 301.055 392.256 300.684L383.233 291.66C382.862 291.289 382.259 291.289 381.887 291.66L376.557 296.991C376.185 297.362 376.185 297.965 376.557 298.337L385.58 307.36C385.952 307.731 385.952 308.334 385.58 308.706L376.594 317.691C376.223 318.063 376.223 318.666 376.594 319.037L381.925 324.368C382.296 324.739 382.899 324.739 383.269 324.368L392.256 315.382C392.628 315.01 393.23 315.01 393.602 315.382L402.588 324.368Z" fill="white"/>
</g>
</g>
</mask>
<g mask="url(#mask1_1522_9072)">
<path d="M408.256 318.028L402.924 323.36L404.943 325.377L410.273 320.045L408.256 318.028ZM399.269 309.714L408.256 318.701L410.273 316.683L401.286 307.696L399.269 309.714ZM401.286 308.369L410.311 299.345L408.292 297.327L399.269 306.352L401.286 308.369ZM410.311 295.983L404.979 290.651L402.962 292.67L408.292 298L410.311 295.983ZM401.616 290.651L392.593 299.676L394.61 301.693L403.635 292.67L401.616 290.651ZM382.224 292.67L391.248 301.693L393.266 299.676L384.241 290.651L382.224 292.67ZM377.566 298L382.897 292.67L380.879 290.651L375.548 295.983L377.566 298ZM386.589 306.352L377.566 297.327L375.548 299.345L384.572 308.369L386.589 306.352ZM384.572 307.696L375.585 316.683L377.602 318.701L386.589 309.714L384.572 307.696ZM375.585 320.045L380.915 325.377L382.934 323.36L377.602 318.028L375.585 320.045ZM384.279 325.377L393.266 316.39L391.248 314.373L382.261 323.36L384.279 325.377ZM403.597 323.36L394.61 314.373L392.593 316.39L401.58 325.377L403.597 323.36ZM393.266 316.39C393.08 316.576 392.779 316.576 392.593 316.39L394.61 314.373C393.682 313.444 392.176 313.444 391.248 314.373L393.266 316.39ZM380.915 325.377C381.844 326.306 383.35 326.306 384.279 325.377L382.261 323.36C382.447 323.174 382.748 323.174 382.934 323.36L380.915 325.377ZM375.585 316.683C374.656 317.612 374.656 319.118 375.585 320.045L377.602 318.028C377.788 318.214 377.788 318.515 377.602 318.701L375.585 316.683ZM384.572 308.369C384.386 308.183 384.386 307.882 384.572 307.696L386.589 309.714C387.518 308.785 387.518 307.279 386.589 306.352L384.572 308.369ZM375.548 295.983C374.62 296.912 374.62 298.417 375.548 299.345L377.566 297.327C377.752 297.513 377.752 297.814 377.566 298L375.548 295.983ZM384.241 290.651C383.313 289.723 381.808 289.723 380.879 290.651L382.897 292.67C382.711 292.854 382.41 292.854 382.224 292.67L384.241 290.651ZM392.593 299.676C392.779 299.49 393.08 299.49 393.266 299.676L391.248 301.693C392.176 302.622 393.682 302.622 394.61 301.693L392.593 299.676ZM404.979 290.651C404.05 289.723 402.545 289.723 401.616 290.651L403.635 292.67C403.449 292.854 403.147 292.854 402.962 292.67L404.979 290.651ZM410.311 299.345C411.238 298.417 411.238 296.912 410.311 295.983L408.292 298C408.107 297.814 408.107 297.513 408.292 297.327L410.311 299.345ZM401.286 307.696C401.472 307.882 401.472 308.183 401.286 308.369L399.269 306.352C398.34 307.279 398.34 308.785 399.269 309.714L401.286 307.696ZM402.924 323.36C403.11 323.174 403.411 323.174 403.597 323.36L401.58 325.377C402.509 326.306 404.014 326.306 404.943 325.377L402.924 323.36ZM410.273 320.045C411.202 319.118 411.202 317.612 410.273 316.683L408.256 318.701C408.07 318.515 408.07 318.214 408.256 318.028L410.273 320.045Z" fill="white"/>
</g>
<g opacity="0.25">
<mask id="mask2_1522_9072" style="mask-type:luminance" maskUnits="userSpaceOnUse" x="378" y="293" width="30" height="30">
<g opacity="0.25">
<g opacity="0.25">
<path fill-rule="evenodd" clip-rule="evenodd" d="M383.298 321.809C382.926 322.179 382.323 322.179 381.952 321.809L379.088 318.944C378.717 318.573 378.717 317.97 379.088 317.6L388.047 308.64C388.419 308.268 388.419 307.667 388.047 307.295L379.24 298.487C378.869 298.116 378.869 297.514 379.24 297.143L382.104 294.278C382.475 293.907 383.078 293.907 383.449 294.278L392.256 303.086C392.628 303.458 393.23 303.458 393.602 303.086L402.584 294.103C402.956 293.731 403.559 293.731 403.93 294.103L406.794 296.967C407.165 297.339 407.165 297.94 406.794 298.312L397.811 307.295C397.44 307.667 397.44 308.268 397.811 308.64L406.7 317.528C407.071 317.9 407.071 318.502 406.7 318.874L403.835 321.738C403.463 322.109 402.862 322.109 402.49 321.738L393.602 312.849C393.23 312.478 392.628 312.478 392.256 312.849L383.298 321.809Z" fill="white"/>
</g>
</g>
</mask>
<g mask="url(#mask2_1522_9072)">
<path d="M378.079 319.954L380.944 322.817L382.961 320.8L380.098 317.935L378.079 319.954ZM387.039 307.632L378.079 316.59L380.098 318.608L389.056 309.649L387.039 307.632ZM389.056 306.286L380.248 297.479L378.231 299.497L387.039 308.303L389.056 306.286ZM380.248 298.151L383.113 295.287L381.094 293.27L378.231 296.133L380.248 298.151ZM382.44 295.287L391.248 304.094L393.266 302.077L384.458 293.27L382.44 295.287ZM401.576 293.094L392.593 302.077L394.61 304.094L403.594 295.112L401.576 293.094ZM407.803 295.958L404.938 293.094L402.921 295.112L405.786 297.975L407.803 295.958ZM398.819 308.303L407.803 299.321L405.786 297.304L396.802 306.286L398.819 308.303ZM396.802 309.649L405.69 318.538L407.708 316.52L398.819 307.632L396.802 309.649ZM405.69 317.865L402.827 320.729L404.844 322.747L407.708 319.883L405.69 317.865ZM403.499 320.729L394.61 311.841L392.593 313.858L401.481 322.747L403.499 320.729ZM384.307 322.817L393.266 313.858L391.248 311.841L382.288 320.8L384.307 322.817ZM394.61 311.841C393.681 310.912 392.176 310.912 391.248 311.841L393.266 313.858C393.08 314.044 392.779 314.044 392.593 313.858L394.61 311.841ZM402.827 320.729C403.013 320.544 403.313 320.544 403.499 320.729L401.481 322.747C402.41 323.676 403.915 323.676 404.844 322.747L402.827 320.729ZM405.69 318.538C405.505 318.352 405.505 318.051 405.69 317.865L407.708 319.883C408.637 318.954 408.637 317.449 407.708 316.52L405.69 318.538ZM396.802 306.286C395.873 307.215 395.873 308.72 396.802 309.649L398.819 307.632C399.005 307.818 399.005 308.118 398.819 308.303L396.802 306.286ZM405.786 297.975C405.6 297.79 405.6 297.489 405.786 297.304L407.803 299.321C408.732 298.392 408.732 296.887 407.803 295.958L405.786 297.975ZM403.594 295.112C403.408 295.298 403.107 295.298 402.921 295.112L404.938 293.094C404.009 292.166 402.504 292.166 401.576 293.094L403.594 295.112ZM391.248 304.094C392.176 305.023 393.681 305.023 394.61 304.094L392.593 302.077C392.779 301.891 393.08 301.891 393.266 302.077L391.248 304.094ZM383.113 295.287C382.927 295.473 382.626 295.473 382.44 295.287L384.458 293.27C383.529 292.341 382.023 292.341 381.094 293.27L383.113 295.287ZM380.248 297.479C380.434 297.665 380.434 297.965 380.248 298.151L378.231 296.133C377.302 297.062 377.302 298.568 378.231 299.497L380.248 297.479ZM389.056 309.649C389.985 308.72 389.985 307.215 389.056 306.286L387.039 308.303C386.853 308.118 386.853 307.818 387.039 307.632L389.056 309.649ZM380.944 322.817C381.873 323.746 383.378 323.746 384.307 322.817L382.288 320.8C382.474 320.614 382.775 320.614 382.961 320.8L380.944 322.817ZM380.098 317.935C380.283 318.121 380.283 318.422 380.098 318.608L378.079 316.59C377.151 317.519 377.151 319.025 378.079 319.954L380.098 317.935Z" fill="white"/>
</g>
</g>
</g>
<g opacity="0.4">
<path d="M120.743 51.9063C120.743 61.9908 112.226 70.17 101.714 70.17C91.2027 70.17 82.6857 61.9908 82.6857 51.9063C82.6857 41.8218 91.2027 33.6425 101.714 33.6425C112.226 33.6425 120.743 41.8218 120.743 51.9063Z" fill="#1C1822" stroke="white" stroke-width="0.10496"/>
<path d="M101.724 70.3115C111.872 70.3115 120.098 62.085 120.098 51.937C120.098 41.789 111.872 33.5624 101.724 33.5624C91.5758 33.5624 83.3491 41.789 83.3491 51.937C83.3491 62.085 91.5758 70.3115 101.724 70.3115Z" stroke="white" stroke-width="1.25952"/>
<path d="M116.156 46.5866C116.121 46.5839 116.084 46.5826 116.047 46.5826H115.694C115.055 46.5826 114.493 47.0082 114.32 47.624L113.377 50.991L112.72 47.7281C112.586 47.0618 112.001 46.5826 111.321 46.5826H110.159C109.229 46.5826 108.547 47.4579 108.776 48.3594L111.039 57.2991C111.2 57.9322 111.77 58.3754 112.423 58.3754H112.839C112.955 58.3754 113.067 58.3617 113.175 58.3358C113.282 58.3617 113.395 58.3754 113.511 58.3754H113.652C114.285 58.3754 114.842 57.9581 115.021 57.3504L116.149 53.5039L117.279 57.351C117.458 57.9584 118.015 58.3754 118.648 58.3754H118.794C118.912 58.3754 119.025 58.3615 119.134 58.3351C119.243 58.3615 119.356 58.3754 119.473 58.3754H119.877C120.531 58.3754 121.099 57.9322 121.26 57.2991L123.525 48.3594C123.752 47.4579 123.071 46.5826 122.142 46.5826H120.97C120.29 46.5826 119.704 47.063 119.57 47.7304L118.923 50.9782L117.979 47.6228C117.807 47.0076 117.245 46.5826 116.606 46.5826H116.266C116.229 46.5826 116.192 46.5839 116.156 46.5866Z" fill="#1C1822" stroke="white" stroke-width="1.25952"/>
<path d="M101.747 46.5866C101.711 46.5839 101.674 46.5826 101.638 46.5826H101.284C100.645 46.5826 100.084 47.0082 99.9108 47.624L98.9661 50.991L98.3103 47.7281C98.1764 47.0618 97.5911 46.5826 96.9116 46.5826H95.7489C94.819 46.5826 94.1376 47.4579 94.3659 48.3594L96.6297 57.2991C96.79 57.9322 97.3597 58.3754 98.0127 58.3754H98.4296C98.5453 58.3754 98.6577 58.3617 98.7653 58.3358C98.8728 58.3617 98.9853 58.3754 99.1013 58.3754H99.2419C99.8752 58.3754 100.433 57.9581 100.611 57.3504L101.739 53.5039L102.869 57.351C103.048 57.9584 103.605 58.3754 104.238 58.3754H104.385C104.502 58.3754 104.616 58.3615 104.724 58.3351C104.833 58.3615 104.946 58.3754 105.063 58.3754H105.467C106.12 58.3754 106.69 57.9322 106.85 57.2991L109.114 48.3594C109.343 47.4579 108.661 46.5826 107.731 46.5826H106.56C105.879 46.5826 105.294 47.063 105.161 47.7304L104.514 50.9782L103.57 47.6228C103.396 47.0076 102.835 46.5826 102.196 46.5826H101.856C101.819 46.5826 101.783 46.5839 101.747 46.5866Z" fill="#1C1822" stroke="white" stroke-width="1.25952"/>
<path d="M87.3377 46.5866C87.3016 46.5839 87.2653 46.5826 87.2285 46.5826H86.8753C86.2357 46.5826 85.6744 47.0082 85.5016 47.624L84.557 50.991L83.9012 47.7281C83.7673 47.0618 83.182 46.5826 82.5025 46.5826H81.3398C80.4098 46.5826 79.7285 47.4579 79.9567 48.3594L82.2206 57.2991C82.3809 57.9322 82.9505 58.3754 83.6036 58.3754H84.0205C84.1362 58.3754 84.2486 58.3617 84.3561 58.3358C84.4637 58.3617 84.5762 58.3754 84.6921 58.3754H84.8327C85.4661 58.3754 86.0235 57.9581 86.2018 57.3504L87.3301 53.5039L88.4601 57.351C88.6385 57.9584 89.1959 58.3754 89.829 58.3754H89.9755C90.0928 58.3754 90.2065 58.3615 90.3151 58.3351C90.4238 58.3615 90.5373 58.3754 90.6544 58.3754H91.0583C91.7113 58.3754 92.281 57.9322 92.4414 57.2991L94.7051 48.3594C94.9335 47.4579 94.252 46.5826 93.3221 46.5826H92.1508C91.4704 46.5826 90.8846 47.063 90.7517 47.7304L90.1046 50.9782L89.1603 47.6228C88.9872 47.0076 88.4261 46.5826 87.787 46.5826H87.4467C87.41 46.5826 87.3736 46.5839 87.3377 46.5866Z" fill="#1C1822" stroke="white" stroke-width="1.25952"/>
<path d="M93.272 44.8406C92.7717 45.1295 92.1322 44.9581 91.8434 44.4579C91.5546 43.9578 91.726 43.3181 92.2262 43.0294C92.7263 42.7407 93.3659 42.9121 93.6547 43.4122C93.9434 43.9124 93.7721 44.5519 93.272 44.8406Z" fill="white" stroke="white" stroke-width="1.25952"/>
<path d="M88.0253 64.6622C88.0253 64.6622 93.8428 61.668 101.761 61.668M115.497 64.6622C115.497 64.6622 112.54 63.1406 107.974 62.2668" stroke="white" stroke-width="1.25952" stroke-linecap="round"/>
<path d="M88.0253 39.2116C88.0253 39.2116 93.8428 42.2057 101.761 42.2057C109.679 42.2057 115.497 39.2116 115.497 39.2116" stroke="white" stroke-width="1.25952"/>
<path d="M92.3666 60.3207C94.3932 65.4362 97.4917 70.5757 101.761 70.5757C106.03 70.5757 109.128 65.4362 111.155 60.3207" stroke="white" stroke-width="1.25952" stroke-linecap="round"/>
<path d="M111.179 44.0771C109.148 38.7002 106.042 33.298 101.762 33.298C97.9001 33.298 94.9941 37.696 92.9706 42.5052" stroke="white" stroke-width="1.25952" stroke-linecap="round"/>
<path d="M105.473 62.6561C104.973 62.945 104.333 62.7736 104.045 62.2734C103.756 61.7731 103.927 61.1336 104.427 60.8449C104.928 60.556 105.567 60.7274 105.856 61.2276C106.145 61.7278 105.973 62.3674 105.473 62.6561Z" fill="#231824" stroke="white" stroke-width="1.25952"/>
</g>
<g opacity="0.4">
<path d="M491 180.11H487.583C486.179 180.11 485.042 181.247 485.042 182.65C485.042 184.054 486.179 185.192 487.583 185.192H491C492.404 185.192 493.541 184.054 493.541 182.65C493.541 181.247 492.404 180.11 491 180.11Z" fill="#1C1822" stroke="white" stroke-width="1.25952"/>
<path d="M477.657 180.11H474.239C472.836 180.11 471.699 181.247 471.699 182.65C471.699 184.054 472.836 185.192 474.239 185.192H477.657C479.06 185.192 480.198 184.054 480.198 182.65C480.198 181.247 479.06 180.11 477.657 180.11Z" fill="#1C1822" stroke="white" stroke-width="1.25952"/>
<path d="M485.684 181.195H480.205C479.372 181.195 478.696 181.871 478.696 182.706C478.696 183.54 479.372 184.216 480.205 184.216H485.684C486.518 184.216 487.194 183.54 487.194 182.706C487.194 181.871 486.518 181.195 485.684 181.195Z" fill="#1C1822" stroke="white" stroke-width="1.25952"/>
<path d="M447.301 180.11H443.884C442.48 180.11 441.343 181.247 441.343 182.65C441.343 184.054 442.48 185.192 443.884 185.192H447.301C448.704 185.192 449.842 184.054 449.842 182.65C449.842 181.247 448.704 180.11 447.301 180.11Z" fill="#1C1822" stroke="white" stroke-width="1.25952"/>
<path d="M460.643 180.11H457.226C455.823 180.11 454.685 181.247 454.685 182.65C454.685 184.054 455.823 185.192 457.226 185.192H460.643C462.047 185.192 463.184 184.054 463.184 182.65C463.184 181.247 462.047 180.11 460.643 180.11Z" fill="#1C1822" stroke="white" stroke-width="1.25952"/>
<path d="M454.732 181.195H449.254C448.419 181.195 447.743 181.871 447.743 182.706C447.743 183.54 448.419 184.216 449.254 184.216H454.732C455.565 184.216 456.242 183.54 456.242 182.706C456.242 181.871 455.565 181.195 454.732 181.195Z" fill="#1C1822" stroke="white" stroke-width="1.25952"/>
<g opacity="0.25">
<path d="M458.14 182.256L466.85 185.499C467.008 185.558 467.181 185.559 467.34 185.503L476.385 182.256" stroke="white" stroke-width="1.25952" stroke-linecap="round"/>
<path d="M476.537 182.476L478.459 185.627C478.691 186.009 478.52 186.507 478.101 186.666L470.481 189.543C470.166 189.662 469.81 189.544 469.629 189.261L467.255 185.568" stroke="white" stroke-width="1.25952" stroke-linecap="round"/>
<path d="M467.429 178.603V185.36" stroke="white" stroke-width="1.25952" stroke-linecap="round"/>
</g>
<path d="M456.339 180.405L465.974 177.102L468.422 176.888L477.934 180.405L467.015 184.505L456.339 180.405Z" fill="#1C1822" stroke="white" stroke-width="0.10496"/>
<path d="M456.394 194.015V181.726C456.394 181.235 456.882 180.89 457.345 181.053L467.01 184.455L477.081 181.039C477.545 180.881 478.024 181.226 478.024 181.714V193.871C478.024 194.174 477.832 194.444 477.546 194.544L467.01 198.218L456.874 194.689C456.587 194.589 456.394 194.319 456.394 194.015Z" fill="#1C1822"/>
<path d="M467.01 198.218L456.874 194.689C456.587 194.589 456.394 194.319 456.394 194.015V181.726C456.394 181.235 456.882 180.89 457.345 181.053L467.01 184.455M467.01 198.218V184.455M467.01 198.218L477.546 194.544C477.832 194.444 478.024 194.174 478.024 193.871V181.714C478.024 181.226 477.545 180.881 477.081 181.039L467.01 184.455" stroke="white" stroke-width="1.25952" stroke-linecap="round" stroke-linejoin="round"/>
<path d="M478.205 180.965L480.526 184.564C480.775 184.95 480.6 185.468 480.167 185.622L470.905 188.927C470.599 189.037 470.258 188.925 470.076 188.656L467.201 184.43" stroke="white" stroke-width="1.25952" stroke-linecap="round" stroke-linejoin="round"/>
<path d="M469.745 188.638L467.877 185.264C467.667 184.885 467.84 184.41 468.243 184.253L478.298 180.357L480.7 183.834C480.959 184.207 480.807 184.723 480.388 184.898L470.642 188.952C470.307 189.091 469.92 188.956 469.745 188.638Z" fill="#7F7F7F"/>
<path d="M478.298 180.357L480.701 183.834C480.959 184.207 480.807 184.723 480.388 184.898L470.642 188.952C470.307 189.091 469.92 188.956 469.745 188.638L467.877 185.264C467.667 184.885 467.84 184.41 468.243 184.253L478.298 180.357ZM478.298 180.357L467.713 176.67C467.562 176.618 467.399 176.616 467.249 176.667L456.009 180.476" stroke="white" stroke-width="1.25952" stroke-linecap="round" stroke-linejoin="round"/>
<path d="M467.409 176.626V184.197" stroke="white" stroke-width="1.25952" stroke-linecap="round" stroke-linejoin="round"/>
<path d="M453.413 184.439L454.941 182.199C455.337 181.619 456.244 181.898 456.244 182.601V184.984C456.244 185.404 455.882 185.733 455.464 185.694L453.936 185.551C453.396 185.5 453.107 184.888 453.413 184.439Z" fill="#7F7F7F" stroke="white" stroke-width="1.25952" stroke-linecap="round" stroke-linejoin="round"/>
<path d="M477.402 171.907H474.303C474.114 171.907 473.931 171.981 473.798 172.115L471.064 174.849C470.931 174.983 470.855 175.164 470.855 175.353V183.004" stroke="white" stroke-width="1.25952" stroke-linecap="round"/>
<path d="M456.149 169.057H460.444C460.633 169.057 460.814 169.131 460.948 169.265L463.682 171.999C463.816 172.133 463.891 172.314 463.891 172.504V183.238" stroke="white" stroke-width="1.25952" stroke-linecap="round"/>
<path d="M467.386 166.522V177.432" stroke="white" stroke-width="1.25952" stroke-linecap="round"/>
<path d="M457.184 167.819C456.472 167.407 455.562 167.651 455.152 168.362C454.741 169.074 454.984 169.984 455.696 170.394C456.407 170.806 457.318 170.562 457.728 169.851C458.139 169.139 457.895 168.229 457.184 167.819Z" fill="white" stroke="white" stroke-width="1.25952" stroke-linecap="round"/>
<path d="M479.098 170.628C478.386 170.217 477.476 170.46 477.066 171.171C476.654 171.883 476.898 172.794 477.609 173.204C478.322 173.615 479.231 173.371 479.641 172.66C480.053 171.947 479.809 171.038 479.098 170.628Z" fill="white" stroke="white" stroke-width="1.25952" stroke-linecap="round"/>
<path d="M468.141 163.698C467.428 163.287 466.519 163.53 466.109 164.241C465.698 164.953 465.941 165.864 466.652 166.274C467.364 166.685 468.275 166.441 468.685 165.73C469.096 165.019 468.852 164.108 468.141 163.698Z" fill="#1C1822" stroke="white" stroke-width="1.25952" stroke-linecap="round"/>
</g>
<path opacity="0.8" d="M127.998 260.648V319.307C127.998 323.848 125.556 328.035 121.596 330.307L70.4011 359.636C66.4412 361.906 61.5565 361.906 57.5966 359.636L6.40225 330.307C2.44234 328.035 0 323.848 0 319.307V260.648C0 256.106 2.44234 251.919 6.40225 249.648L57.5966 220.318C61.5565 218.048 66.4412 218.048 70.4011 220.318L121.596 249.648C125.556 251.919 127.998 256.106 127.998 260.648Z" fill="url(#paint0_linear_1522_9072)"/>
<path d="M59.7855 299.226C59.3854 299.226 58.98 299.119 58.6173 298.906C57.8812 298.485 57.4437 297.727 57.4437 296.879V283.526C57.4437 282.678 57.8812 281.921 58.612 281.5C59.3482 281.078 60.2177 281.078 60.9538 281.5L72.519 288.178C73.2339 288.588 73.6659 289.32 73.6873 290.141C73.6873 290.163 73.6873 290.184 73.6873 290.205C73.6873 291.053 73.2499 291.811 72.519 292.232L60.9538 298.911C60.5858 299.125 60.1856 299.231 59.7855 299.231V299.226ZM60.111 284.092V296.318L70.7 290.205L60.111 284.092Z" fill="url(#paint1_linear_1522_9072)"/>
<path opacity="0.7" d="M63.5321 308.164C53.631 308.164 45.5734 300.107 45.5734 290.206C45.5734 280.305 53.631 272.247 63.5321 272.247C73.4333 272.247 81.4909 280.305 81.4909 290.206C81.4909 300.107 73.4333 308.164 63.5321 308.164ZM63.5321 274.784C55.0289 274.784 48.1057 281.703 48.1057 290.21C48.1057 298.719 55.0238 305.637 63.5321 305.637C72.0405 305.637 78.9587 298.719 78.9587 290.21C78.9587 281.703 72.0405 274.784 63.5321 274.784Z" fill="white"/>
<path opacity="0.55" d="M67.8925 317.945C67.5884 317.945 67.2951 317.843 67.0549 317.651C66.7615 317.416 66.5802 317.064 66.5589 316.686C66.4682 315.075 65.1398 313.815 63.5289 313.815C61.9178 313.815 60.5842 315.081 60.4988 316.686C60.4775 317.064 60.2962 317.416 60.0027 317.651C59.7093 317.886 59.3252 317.987 58.9519 317.928C45.3222 315.693 35.432 304.032 35.432 290.205C35.432 276.378 45.3222 264.717 58.9519 262.481C59.3252 262.418 59.704 262.519 59.9974 262.753C60.2907 262.989 60.4722 263.335 60.4988 263.708C60.6055 265.298 61.9339 266.547 63.5289 266.547C65.1238 266.547 66.4522 265.304 66.5589 263.708C66.5855 263.335 66.7669 262.989 67.0602 262.753C67.3537 262.519 67.7324 262.418 68.1059 262.481C81.7355 264.717 91.631 276.373 91.631 290.205C91.631 304.038 81.7409 315.693 68.1112 317.928C68.0419 317.94 67.9671 317.945 67.8978 317.945H67.8925ZM63.5289 311.143C66.0414 311.143 68.1858 312.77 68.9434 315.053C80.6206 312.541 88.9638 302.283 88.9638 290.2C88.9638 278.118 80.61 267.854 68.9274 265.346C68.1539 267.598 66.0147 269.209 63.5289 269.209C61.043 269.209 58.9038 267.598 58.1303 265.346C46.4477 267.854 38.0939 278.112 38.0939 290.2C38.0939 302.288 46.4371 312.535 58.1143 315.053C58.8718 312.77 61.0163 311.143 63.5289 311.143Z" fill="white"/>
<path opacity="0.75" d="M63.5353 328.234C63.3819 328.234 63.2286 328.234 63.0694 328.234C49.2421 328.063 36.5794 320.383 30.0237 308.186C29.8419 307.845 29.8021 307.441 29.9272 307.072C30.0521 306.703 30.3134 306.402 30.6656 306.232C31.7905 305.697 32.5176 304.55 32.5176 303.312C32.5176 301.527 31.0633 300.073 29.2795 300.073C28.9727 300.073 28.6603 300.118 28.3593 300.209C27.9842 300.318 27.581 300.272 27.2458 300.079C26.9106 299.886 26.6663 299.562 26.5754 299.182C25.8256 296.102 25.4676 292.927 25.5017 289.745C25.7574 268.936 42.7659 252.177 63.524 252.177C63.683 252.177 63.8364 252.177 63.9897 252.177C74.1472 252.303 83.6457 256.37 90.741 263.641C97.8365 270.913 101.677 280.508 101.552 290.666C101.518 293.665 101.12 296.676 100.37 299.608C100.274 299.982 100.035 300.301 99.6999 300.493C99.3647 300.687 98.967 300.732 98.5977 300.625C98.308 300.539 98.0183 300.493 97.7342 300.493C96.8821 300.471 96.0527 300.812 95.4335 301.414C94.8143 302.016 94.4677 302.828 94.4564 303.692C94.4394 304.93 95.1211 306.055 96.2345 306.618C96.5754 306.794 96.8367 307.1 96.9503 307.47C97.0639 307.839 97.0241 308.237 96.8367 308.572C90.1162 320.735 77.391 328.239 63.5353 328.239V328.234ZM33.1595 307.975C39.3859 318.604 50.7419 325.24 63.1035 325.393C63.2455 325.393 63.3932 325.393 63.5353 325.393C75.9254 325.393 87.3439 318.906 93.7065 308.31C92.3715 307.157 91.5988 305.476 91.6216 303.652C91.6444 302.027 92.292 300.51 93.4565 299.374C94.5984 298.261 96.1038 297.648 97.7001 297.648C97.774 297.648 97.8478 297.648 97.9217 297.648C98.4217 295.335 98.6887 292.978 98.7171 290.632C98.8307 281.235 95.2801 272.356 88.713 265.63C82.1459 258.903 73.3576 255.137 63.9613 255.024C63.8194 255.024 63.6717 255.024 63.5296 255.024C44.3168 255.018 28.5807 270.521 28.3422 289.779C28.3137 292.29 28.5467 294.79 29.0409 297.238C29.1148 297.238 29.1886 297.238 29.2682 297.238C32.6199 297.238 35.3467 299.965 35.3467 303.317C35.3467 305.13 34.5173 306.839 33.1538 307.981L33.1595 307.975Z" fill="white"/>
<path opacity="0.6" d="M132.529 124.893V236.446C132.529 242.521 135.76 248.159 141.002 251.182L237.313 306.945C242.556 309.996 249.046 309.996 254.288 306.945L350.599 251.182C355.842 248.132 359.073 242.521 359.073 236.446V124.893C359.073 118.818 355.842 113.18 350.599 110.156L254.316 54.3935C249.073 51.3425 242.583 51.3425 237.341 54.3935L141.002 110.156C135.76 113.207 132.529 118.818 132.529 124.893Z" fill="url(#paint2_linear_1522_9072)"/>
<path opacity="0.6" d="M149.519 133.248V228.091C149.519 233.256 152.266 238.051 156.722 240.621L238.587 288.031C243.042 290.626 248.56 290.626 253.015 288.031L334.879 240.621C339.335 238.027 342.082 233.256 342.082 228.091V133.248C342.082 128.083 339.335 123.288 334.879 120.718L253.039 73.3071C248.583 70.7131 243.065 70.7131 238.609 73.3071L156.722 120.718C152.266 123.312 149.519 128.083 149.519 133.248Z" fill="url(#paint3_linear_1522_9072)"/>
<path d="M181.67 171.055C183.173 171.055 184.393 169.837 184.393 168.336V149.242C184.393 147.817 185.155 146.479 186.375 145.741L237.909 114.924L237.005 118.697C236.656 120.155 237.561 121.623 239.02 121.97C239.239 122.025 239.445 122.046 239.652 122.046C240.884 122.046 242.005 121.209 242.3 119.959L244.848 109.335C245.023 108.606 244.881 107.823 244.467 107.204C244.053 106.573 243.388 106.149 242.637 106.029L231.842 104.246C230.349 104.007 228.955 105.007 228.716 106.486C228.476 107.965 229.478 109.367 230.96 109.607L235.066 110.281L183.586 141.075C180.733 142.783 178.957 145.914 178.957 149.242V168.336C178.957 169.837 180.177 171.055 181.68 171.055H181.67Z" fill="url(#paint4_linear_1522_9072)"/>
<path d="M309.938 189.525C308.456 189.525 307.252 190.752 307.252 192.263V211.499C307.252 212.934 306.501 214.282 305.298 215.026L255.619 245.382L256.748 241.492C257.167 240.047 256.35 238.524 254.932 238.096C253.503 237.659 252.021 238.502 251.602 239.948L248.551 250.507C248.337 251.241 248.433 252.02 248.82 252.677C249.196 253.335 249.83 253.795 250.561 253.959L261.109 256.302C261.301 256.347 261.495 256.368 261.689 256.368C262.923 256.368 264.03 255.492 264.31 254.21C264.621 252.732 263.707 251.274 262.257 250.946L258.401 250.092L308.08 219.737C310.894 218.017 312.645 214.862 312.645 211.51V192.274C312.645 190.762 311.442 189.535 309.959 189.535L309.938 189.525Z" fill="url(#paint5_linear_1522_9072)"/>
<path d="M241.835 248.612L185.935 214.813C184.714 214.076 183.951 212.711 183.951 211.27V196.587L186.687 199.56C187.222 200.142 187.953 200.44 188.683 200.44C189.348 200.44 190.014 200.197 190.538 199.702C191.639 198.668 191.704 196.928 190.679 195.817L183.22 187.728C182.184 186.605 180.265 186.605 179.229 187.728L171.77 195.817C170.744 196.928 170.81 198.668 171.911 199.702C173.013 200.737 174.736 200.671 175.761 199.56L178.498 196.587V211.27C178.498 214.637 180.275 217.795 183.133 219.535L239.033 253.334C239.469 253.597 239.959 253.73 240.428 253.73C241.355 253.73 242.26 253.256 242.773 252.398C243.547 251.1 243.132 249.405 241.835 248.624V248.612Z" fill="url(#paint6_linear_1522_9072)"/>
<path d="M319.701 163.562C318.6 162.536 316.877 162.601 315.852 163.705L313.115 166.654V148.094C313.115 144.753 311.337 141.618 308.48 139.891L252.57 106.357C251.283 105.582 249.603 106.008 248.829 107.297C248.055 108.586 248.47 110.268 249.767 111.043L305.666 144.589C306.888 145.32 307.651 146.675 307.651 148.106V166.664L304.914 163.716C303.889 162.613 302.166 162.547 301.064 163.573C299.963 164.601 299.897 166.326 300.923 167.429L308.382 175.458C308.895 176.015 309.625 176.332 310.377 176.332C311.13 176.332 311.86 176.015 312.373 175.458L319.832 167.429C320.857 166.326 320.792 164.601 319.691 163.573L319.701 163.562Z" fill="url(#paint7_linear_1522_9072)"/>
<path d="M289.382 210.138C292.337 208.454 294.175 205.323 294.175 201.954V157.745C294.175 154.377 292.337 151.246 289.382 149.561L250.588 127.462C247.634 125.778 243.968 125.778 241.014 127.462L202.219 149.561C199.265 151.246 197.427 154.377 197.427 157.745V201.954C197.427 205.323 199.265 208.454 202.219 210.138L241.014 232.238C242.491 233.079 244.144 233.501 245.807 233.501C247.469 233.501 249.121 233.079 250.598 232.238L289.394 210.138H289.382ZM288.704 201.954C288.704 203.391 287.917 204.74 286.648 205.464L248.531 227.174V179.704C248.531 179.628 248.519 179.564 248.508 179.499C249.405 179.261 250.271 178.916 251.102 178.451L288.628 157.065C288.672 157.291 288.694 157.518 288.694 157.755V201.966L288.704 201.954ZM243.75 132.147C244.384 131.791 245.095 131.608 245.807 131.608C246.518 131.608 247.228 131.791 247.864 132.147L284.657 153.114L248.378 173.777C246.802 174.684 244.832 174.684 243.247 173.777L206.967 153.114L243.761 132.147H243.75ZM204.954 205.464C203.685 204.74 202.897 203.402 202.897 201.954V157.745C202.897 157.507 202.93 157.281 202.962 157.054L240.49 178.441C241.31 178.906 242.185 179.261 243.082 179.488C243.082 179.564 243.06 179.628 243.06 179.693V227.163L204.944 205.452L204.954 205.464Z" fill="url(#paint8_linear_1522_9072)"/>
<path d="M244.102 44.7426C244.102 45.6809 244.863 46.4416 245.801 46.4416C246.739 46.4416 247.5 45.6809 247.5 44.7426H244.102ZM75.8924 14.159H234.474V10.7609H75.8924V14.159ZM66.2643 227.677V23.7872H62.8661V227.677H66.2643ZM244.102 23.7872V44.7426H247.5V23.7872H244.102ZM234.474 14.159C239.791 14.159 244.102 18.4697 244.102 23.7872H247.5C247.5 16.5929 241.668 10.7609 234.474 10.7609V14.159ZM75.8924 10.7609C68.6981 10.7609 62.8661 16.5929 62.8661 23.7872H66.2643C66.2643 18.4697 70.5749 14.159 75.8924 14.159V10.7609Z" fill="url(#paint9_linear_1522_9072)"/>
<path d="M430.435 131.396V335.286C430.435 341.542 425.364 346.613 419.108 346.613H260.526C254.27 346.613 249.199 341.542 249.199 335.286V314.331" stroke="url(#paint10_linear_1522_9072)" stroke-width="3" stroke-linecap="round"/>
<path opacity="0.8" d="M493.867 42.3658V101.49C493.867 106.067 491.447 110.289 487.522 112.577L436.78 142.14C432.855 144.428 428.014 144.428 424.089 142.14L373.348 112.577C369.423 110.289 367.002 106.067 367.002 101.49V42.3658C367.002 37.7887 369.423 33.5671 373.348 31.2786L424.089 1.71645C428.014 -0.57215 432.855 -0.57215 436.78 1.71645L487.522 31.2786C491.447 33.5671 493.867 37.7887 493.867 42.3658Z" fill="url(#paint11_linear_1522_9072)"/>
<mask id="mask3_1522_9072" style="mask-type:luminance" maskUnits="userSpaceOnUse" x="402" y="33" width="70" height="78">
<path d="M471.291 33.9642H402.305V110.026H471.291V33.9642Z" fill="white"/>
</mask>
<g mask="url(#mask3_1522_9072)">
<path opacity="0.85" d="M414.847 33.9642C408.428 33.9642 403.128 38.8088 402.399 45.0292C402.369 45.1409 402.351 45.2585 402.351 45.3761V45.5466C402.327 45.8641 402.305 46.1757 402.305 46.4991C402.305 46.8225 402.327 47.1341 402.351 47.4516V95.8036C402.351 96.6149 403.01 97.2734 403.823 97.2734C404.634 97.2734 405.293 96.6149 405.293 95.8036V54.6009C407.593 57.3054 411.023 59.0339 414.847 59.0339C421.766 59.0339 427.39 53.4073 427.39 46.4991C427.39 39.5908 421.766 33.9642 414.847 33.9642ZM414.847 56.0942C409.876 56.0942 405.775 52.2961 405.293 47.4516V45.5466C405.775 40.702 409.876 36.9039 414.847 36.9039C420.142 36.9039 424.448 41.2077 424.448 46.4991C424.448 51.7905 420.142 56.0942 414.847 56.0942Z" fill="url(#paint12_linear_1522_9072)"/>
<path opacity="0.85" d="M462.971 82.2925C462.559 81.5871 461.665 81.3519 460.958 81.7576L426.659 101.671C427.848 98.3198 427.619 94.4923 425.695 91.188C422.218 85.2087 414.529 83.1745 408.546 86.6433C402.562 90.1181 400.526 97.8024 403.998 103.782C406.321 107.78 410.54 110.02 414.864 110.02C416.565 110.02 418.282 109.667 419.912 108.944C419.994 108.914 420.07 108.891 420.147 108.844L420.218 108.803C420.529 108.656 420.835 108.497 421.142 108.321C421.418 108.162 421.677 107.986 421.936 107.803L462.43 84.2916C463.13 83.8859 463.371 82.9863 462.964 82.2809L462.971 82.2925ZM412.387 106.768C409.911 106.11 407.834 104.528 406.546 102.312C405.257 100.095 404.91 97.5084 405.562 95.0332C406.222 92.558 407.804 90.4826 410.022 89.195C411.505 88.3307 413.158 87.8898 414.829 87.8898C415.653 87.8898 416.488 87.9956 417.305 88.2132C419.783 88.8716 421.859 90.4531 423.148 92.6696C424.436 94.8863 424.782 97.4732 424.13 99.9484C423.553 102.112 422.277 103.97 420.483 105.263L418.818 106.233C416.806 107.151 414.558 107.339 412.393 106.768H412.387Z" fill="url(#paint13_linear_1522_9072)"/>
<path opacity="0.85" d="M466.241 62.0732C466.159 61.991 466.065 61.9204 465.959 61.8616L465.806 61.7734C465.547 61.597 465.282 61.4207 465.005 61.2561C464.729 61.0973 464.441 60.962 464.158 60.8268L423.594 37.4681C422.889 37.0624 421.994 37.3034 421.588 38.009C421.183 38.7144 421.423 39.6141 422.13 40.0138L456.499 59.8038C453.004 60.4447 449.798 62.5495 447.885 65.8655C444.433 71.8566 446.504 79.5351 452.492 82.9863C454.458 84.1209 456.611 84.656 458.735 84.656C463.076 84.656 467.306 82.4041 469.624 78.3826C472.825 72.8266 471.272 65.8185 466.247 62.0791L466.241 62.0732ZM467.07 76.9069C464.429 81.4929 458.547 83.0744 453.957 80.4346C449.368 77.7948 447.786 71.9154 450.427 67.3294C452.205 64.2486 455.44 62.526 458.764 62.526C460.1 62.526 461.452 62.8081 462.723 63.3903L464.335 64.3192C468.301 67.153 469.548 72.6033 467.065 76.9069H467.07Z" fill="url(#paint14_linear_1522_9072)"/>
<path opacity="0.75" d="M415.169 101.459C414.292 101.459 413.421 101.23 412.622 100.772C411.027 99.8485 410.074 98.2023 410.074 96.3621V48.3569C410.074 46.5166 411.027 44.8645 412.622 43.9473C414.215 43.0302 416.122 43.0243 417.717 43.9473L459.316 67.947C460.81 68.8113 461.74 70.3105 461.852 72.0097C461.858 72.1272 461.863 72.2389 461.863 72.3565C461.863 74.1967 460.911 75.8489 459.316 76.7661L417.722 100.772C416.922 101.23 416.051 101.459 415.175 101.459H415.169ZM413.016 96.3562C413.016 97.1322 413.416 97.8319 414.092 98.22C414.769 98.6079 415.575 98.6079 416.245 98.22L457.846 74.2203C458.522 73.8322 458.922 73.1326 458.922 72.3565C458.922 71.5805 458.522 70.8808 457.846 70.4927L416.251 46.4931C415.575 46.1051 414.769 46.1051 414.099 46.4931C413.421 46.8812 413.021 47.5808 413.021 48.3569V96.3562H413.016Z" fill="url(#paint15_linear_1522_9072)"/>
</g>
</g>
</g>
<defs>
<linearGradient id="paint0_linear_1522_9072" x1="168.438" y1="289.988" x2="-113.853" y2="289.988" gradientUnits="userSpaceOnUse">
<stop stop-color="#6619D0"/>
<stop offset="1" stop-color="#6619D0" stop-opacity="0"/>
</linearGradient>
<linearGradient id="paint1_linear_1522_9072" x1="73.6873" y1="277.712" x2="47.4022" y2="303.997" gradientUnits="userSpaceOnUse">
<stop stop-color="white"/>
<stop offset="1" stop-color="white" stop-opacity="0"/>
</linearGradient>
<linearGradient id="paint2_linear_1522_9072" x1="147.187" y1="248.615" x2="375.03" y2="100.679" gradientUnits="userSpaceOnUse">
<stop stop-color="#6619D0"/>
<stop offset="1" stop-color="#00BFCB"/>
</linearGradient>
<linearGradient id="paint3_linear_1522_9072" x1="161.979" y1="238.438" x2="355.675" y2="112.706" gradientUnits="userSpaceOnUse">
<stop stop-color="#6619D0"/>
<stop offset="1" stop-color="#00BFCB"/>
</linearGradient>
<linearGradient id="paint4_linear_1522_9072" x1="211.939" y1="104.211" x2="211.939" y2="171.055" gradientUnits="userSpaceOnUse">
<stop stop-color="white"/>
<stop offset="1" stop-color="white" stop-opacity="0.2"/>
</linearGradient>
<linearGradient id="paint5_linear_1522_9072" x1="280.543" y1="189.525" x2="280.543" y2="256.368" gradientUnits="userSpaceOnUse">
<stop stop-color="white" stop-opacity="0.2"/>
<stop offset="1" stop-color="white"/>
</linearGradient>
<linearGradient id="paint6_linear_1522_9072" x1="207.101" y1="186.886" x2="207.101" y2="253.73" gradientUnits="userSpaceOnUse">
<stop stop-color="white"/>
<stop offset="1" stop-color="white" stop-opacity="0.2"/>
</linearGradient>
<linearGradient id="paint7_linear_1522_9072" x1="284.5" y1="105.97" x2="284.5" y2="176.332" gradientUnits="userSpaceOnUse">
<stop stop-color="white" stop-opacity="0.2"/>
<stop offset="1" stop-color="white"/>
</linearGradient>
<linearGradient id="paint8_linear_1522_9072" x1="245.801" y1="126.199" x2="245.801" y2="233.501" gradientUnits="userSpaceOnUse">
<stop stop-color="white"/>
<stop offset="1" stop-color="white" stop-opacity="0.5"/>
</linearGradient>
<linearGradient id="paint9_linear_1522_9072" x1="155.183" y1="12.4599" x2="155.183" y2="227.677" gradientUnits="userSpaceOnUse">
<stop stop-color="#6619D0"/>
<stop offset="1" stop-color="#6619D0" stop-opacity="0"/>
</linearGradient>
<linearGradient id="paint10_linear_1522_9072" x1="339.817" y1="131.396" x2="339.817" y2="346.613" gradientUnits="userSpaceOnUse">
<stop stop-color="#00BFCB" stop-opacity="0"/>
<stop offset="1" stop-color="#00BFCB"/>
</linearGradient>
<linearGradient id="paint11_linear_1522_9072" x1="533.95" y1="71.9398" x2="254.156" y2="71.9398" gradientUnits="userSpaceOnUse">
<stop stop-color="#00BFCB"/>
<stop offset="1" stop-color="#00BFCB" stop-opacity="0"/>
</linearGradient>
<linearGradient id="paint12_linear_1522_9072" x1="414.847" y1="43.2478" x2="414.847" y2="82.6082" gradientUnits="userSpaceOnUse">
<stop stop-color="white"/>
<stop offset="1" stop-color="white" stop-opacity="0.1"/>
</linearGradient>
<linearGradient id="paint13_linear_1522_9072" x1="413.699" y1="98.7137" x2="450.714" y2="76.1748" gradientUnits="userSpaceOnUse">
<stop stop-color="white"/>
<stop offset="1" stop-color="white" stop-opacity="0.1"/>
</linearGradient>
<linearGradient id="paint14_linear_1522_9072" x1="470.465" y1="79.1999" x2="413.342" y2="44.6437" gradientUnits="userSpaceOnUse">
<stop stop-color="white"/>
<stop offset="0.802465" stop-color="white" stop-opacity="0.1"/>
</linearGradient>
<linearGradient id="paint15_linear_1522_9072" x1="380.633" y1="56.4264" x2="478.807" y2="56.4264" gradientUnits="userSpaceOnUse">
<stop stop-color="white"/>
<stop offset="1" stop-color="white" stop-opacity="0"/>
</linearGradient>
<clipPath id="clip0_1522_9072">
<rect width="495" height="361.339" fill="white"/>
</clipPath>
</defs>
</svg>
